<svg id="svg" version="1.1" xmlns="http://www.w3.org/2000/svg" xmlns:xlink="http://www.w3.org/1999/xlink" width="400" height="400.74054482941017" viewBox="0, 0, 400,400.74054482941017"><g id="svgg"><path id="path0" d="M194.835 0.376 C 194.792 0.582,194.713 1.954,194.660 3.424 C 194.607 4.894,194.491 7.073,194.403 8.267 C 194.173 11.389,193.695 18.936,193.390 24.301 C 193.295 25.954,193.150 28.359,193.067 29.645 C 192.983 30.931,192.801 33.937,192.661 36.326 C 192.420 40.450,192.267 42.918,191.910 48.434 C 191.824 49.766,191.675 52.322,191.579 54.113 C 191.483 55.904,191.330 58.459,191.239 59.791 C 191.148 61.123,190.997 63.415,190.903 64.885 C 190.809 66.355,190.655 68.760,190.561 70.230 C 190.467 71.699,190.313 74.292,190.218 75.992 C 190.123 77.691,189.975 80.171,189.889 81.503 C 189.804 82.835,189.619 85.916,189.479 88.351 C 189.340 90.785,189.153 93.866,189.065 95.198 C 188.659 101.325,188.538 103.252,188.304 107.307 C 188.166 109.695,187.980 112.777,187.891 114.154 C 187.449 121.018,187.075 127.158,186.777 132.459 L 186.677 134.229 187.326 134.347 C 187.683 134.412,188.689 134.570,189.562 134.699 C 190.434 134.828,191.599 135.009,192.150 135.101 C 194.571 135.509,195.419 135.645,196.910 135.866 C 197.783 135.996,198.967 136.181,199.541 136.277 C 201.522 136.608,202.678 136.789,204.342 137.030 C 205.261 137.163,206.463 137.347,207.015 137.440 C 209.467 137.852,210.286 137.983,211.775 138.205 C 212.647 138.334,213.812 138.513,214.363 138.601 C 214.914 138.690,215.929 138.845,216.618 138.946 C 217.307 139.046,218.284 139.201,218.789 139.289 C 220.200 139.536,223.748 140.098,225.052 140.282 C 226.147 140.436,226.923 140.560,229.395 140.973 C 229.946 141.065,230.923 141.214,231.566 141.305 C 232.209 141.395,233.637 141.614,234.739 141.791 C 235.841 141.968,237.758 142.273,238.998 142.470 C 240.238 142.666,241.704 142.899,242.255 142.986 C 242.806 143.074,243.971 143.252,244.843 143.382 C 245.716 143.512,246.900 143.696,247.474 143.792 C 253.839 144.856,253.278 144.897,253.417 143.355 C 253.473 142.727,253.599 141.574,253.695 140.793 C 253.791 140.013,253.979 138.397,254.111 137.203 C 254.407 134.524,254.630 132.623,254.866 130.772 C 254.965 129.992,255.160 128.301,255.299 127.015 C 255.437 125.729,255.618 124.113,255.699 123.424 C 255.781 122.735,255.961 121.119,256.100 119.833 C 256.239 118.547,256.433 116.856,256.533 116.075 C 256.632 115.294,256.781 114.054,256.863 113.319 C 256.945 112.585,257.065 111.664,257.129 111.273 L 257.245 110.564 256.681 110.560 C 256.020 110.555,253.554 110.355,246.430 109.727 C 245.420 109.637,243.127 109.451,241.336 109.312 C 239.545 109.173,237.177 108.982,236.075 108.886 C 231.654 108.504,230.426 108.402,227.140 108.142 C 225.257 107.993,223.002 107.809,222.129 107.732 C 221.257 107.654,219.340 107.500,217.871 107.388 C 216.401 107.276,215.183 107.171,215.163 107.155 C 215.129 107.126,215.324 105.309,215.613 102.965 C 215.693 102.322,215.880 100.706,216.031 99.374 C 216.181 98.042,216.374 96.388,216.461 95.699 C 216.547 95.010,216.730 93.432,216.866 92.192 C 217.003 90.952,217.189 89.374,217.279 88.685 C 217.646 85.882,217.814 84.486,218.043 82.338 C 218.176 81.098,218.360 79.501,218.453 78.789 C 218.821 75.977,218.962 74.814,219.209 72.568 C 219.350 71.282,219.540 69.666,219.630 68.977 C 219.720 68.288,219.906 66.710,220.043 65.470 C 220.273 63.381,220.405 62.281,220.793 59.207 C 220.875 58.564,221.055 57.023,221.195 55.783 C 221.452 53.498,221.694 51.476,221.964 49.353 C 222.046 48.710,222.227 47.169,222.365 45.929 C 222.504 44.689,222.699 43.035,222.799 42.255 C 222.899 41.474,223.094 39.820,223.233 38.580 C 223.371 37.340,223.551 35.800,223.632 35.157 C 223.875 33.228,224.127 30.996,224.131 30.752 C 224.133 30.579,224.267 30.553,224.676 30.646 C 225.347 30.800,226.258 30.961,228.309 31.291 C 229.182 31.431,230.347 31.629,230.898 31.731 C 231.880 31.913,232.190 31.965,235.240 32.470 C 236.067 32.606,237.175 32.797,237.704 32.894 C 238.232 32.990,239.096 33.148,239.624 33.244 C 240.152 33.340,241.261 33.524,242.088 33.651 C 242.914 33.779,244.042 33.967,244.593 34.069 C 245.144 34.171,246.271 34.366,247.098 34.503 C 250.149 35.007,250.458 35.060,251.441 35.242 C 251.992 35.344,253.157 35.542,254.029 35.682 C 254.902 35.822,255.954 35.999,256.367 36.075 C 258.870 36.536,262.266 37.067,262.333 37.009 C 262.352 36.991,262.446 36.342,262.541 35.566 C 262.635 34.790,262.789 33.628,262.881 32.985 C 263.117 31.352,263.343 29.644,263.633 27.307 C 263.770 26.205,263.957 24.777,264.050 24.134 C 264.280 22.539,264.506 20.834,264.803 18.455 C 265.083 16.211,265.306 14.509,265.547 12.777 C 265.845 10.630,266.059 10.884,263.170 9.952 C 259.787 8.861,258.487 8.454,257.286 8.110 C 256.735 7.952,256.096 7.763,255.866 7.689 C 255.427 7.547,255.084 7.453,252.526 6.769 C 251.653 6.535,250.676 6.271,250.355 6.182 C 249.361 5.907,244.977 4.856,244.008 4.661 C 243.503 4.559,242.827 4.417,242.505 4.346 C 241.386 4.097,238.406 3.501,237.411 3.327 C 236.860 3.230,236.109 3.082,235.741 2.998 C 235.374 2.913,234.547 2.771,233.904 2.681 C 233.261 2.591,232.246 2.437,231.649 2.337 C 227.210 1.598,220.628 0.840,215.783 0.509 C 214.359 0.412,212.131 0.257,210.831 0.166 C 209.532 0.075,205.418 0.000,201.690 0.000 L 194.912 0.000 194.835 0.376 M172.512 1.739 C 172.474 1.777,171.879 1.890,171.190 1.989 C 169.858 2.182,168.846 2.342,166.430 2.741 C 164.925 2.990,164.248 3.113,161.754 3.594 C 161.019 3.736,160.079 3.916,159.666 3.994 C 158.668 4.183,153.748 5.294,152.902 5.521 C 152.534 5.619,151.783 5.807,151.232 5.938 C 150.057 6.218,149.501 6.362,147.808 6.829 C 147.119 7.018,146.508 7.176,146.451 7.178 C 146.306 7.183,146.161 7.950,145.880 10.188 C 145.657 11.969,145.539 12.823,145.124 15.699 C 145.038 16.296,144.855 17.649,144.718 18.706 C 144.581 19.762,144.393 21.152,144.299 21.795 C 144.205 22.438,144.014 23.866,143.875 24.969 C 143.736 26.071,143.550 27.480,143.460 28.100 C 143.182 30.040,142.994 31.414,142.726 33.486 C 142.484 35.352,142.353 36.297,141.951 39.081 C 141.864 39.678,141.682 41.031,141.545 42.088 C 141.408 43.144,141.220 44.534,141.127 45.177 C 141.035 45.820,140.842 47.248,140.698 48.351 C 140.429 50.429,140.240 51.810,139.963 53.737 C 139.874 54.357,139.723 55.503,139.627 56.284 C 139.531 57.065,139.334 58.493,139.189 59.457 C 138.878 61.531,138.695 62.870,138.366 65.470 C 138.232 66.526,138.047 67.916,137.954 68.559 C 137.861 69.203,137.674 70.593,137.537 71.649 C 137.306 73.437,137.175 74.380,136.773 77.161 C 136.687 77.758,136.504 79.111,136.367 80.167 C 136.231 81.223,136.048 82.576,135.962 83.173 C 135.651 85.331,135.426 86.967,135.183 88.852 C 135.046 89.908,134.865 91.261,134.779 91.858 C 134.694 92.455,134.510 93.846,134.371 94.948 C 134.232 96.050,134.037 97.516,133.938 98.205 C 133.838 98.894,133.686 99.946,133.600 100.543 C 133.514 101.140,133.331 102.493,133.194 103.549 C 132.963 105.337,132.833 106.280,132.431 109.061 C 132.344 109.658,132.162 111.010,132.025 112.067 C 131.888 113.123,131.699 114.514,131.606 115.157 C 131.512 115.800,131.326 117.190,131.194 118.246 C 131.061 119.303,130.869 120.731,130.768 121.420 C 130.327 124.412,130.253 124.948,130.013 126.848 C 129.874 127.950,129.687 129.359,129.598 129.979 C 129.039 133.871,128.556 137.804,128.631 137.858 C 128.684 137.897,129.938 137.797,133.612 137.460 C 134.668 137.363,136.885 137.172,138.539 137.034 C 141.809 136.762,143.999 136.568,146.973 136.288 C 148.029 136.188,150.209 135.998,151.816 135.866 C 154.572 135.640,156.318 135.483,160.251 135.106 C 161.169 135.018,162.618 134.898,163.471 134.839 C 165.333 134.709,165.206 134.887,165.368 132.202 C 165.440 131.003,165.576 128.894,165.671 127.516 C 165.765 126.138,165.956 123.169,166.094 120.919 C 166.349 116.785,166.534 113.983,166.843 109.562 C 166.937 108.230,167.126 105.299,167.265 103.048 C 167.403 100.797,167.588 97.904,167.676 96.618 C 167.763 95.332,167.954 92.363,168.100 90.021 C 168.247 87.678,168.435 84.747,168.520 83.507 C 168.604 82.267,168.752 80.088,168.849 78.664 C 168.946 77.240,169.135 74.309,169.268 72.150 C 169.402 69.992,169.591 67.061,169.688 65.637 C 169.786 64.213,169.937 61.996,170.025 60.710 C 170.112 59.424,170.299 56.530,170.438 54.280 C 170.578 52.029,170.767 49.098,170.859 47.766 C 170.950 46.434,171.138 43.503,171.276 41.253 C 171.415 39.002,171.603 36.071,171.696 34.739 C 171.977 30.701,172.165 27.842,172.437 23.466 C 172.580 21.169,172.773 18.200,172.865 16.868 C 173.159 12.649,173.339 9.858,173.516 6.764 C 173.611 5.111,173.725 3.288,173.769 2.714 L 173.850 1.670 173.216 1.670 C 172.867 1.670,172.550 1.701,172.512 1.739 M133.111 11.426 C 129.052 12.866,127.579 13.420,126.263 14.002 C 126.033 14.104,125.438 14.343,124.940 14.534 C 124.443 14.725,123.714 15.028,123.321 15.207 C 122.928 15.386,122.566 15.532,122.515 15.532 C 122.465 15.532,121.854 15.795,121.158 16.117 C 120.462 16.438,119.862 16.701,119.826 16.701 C 119.762 16.701,119.040 17.021,116.743 18.066 C 113.303 19.631,108.682 21.947,104.301 24.301 C 102.640 25.193,97.857 27.964,96.328 28.921 C 95.617 29.365,94.965 29.729,94.880 29.729 C 94.795 29.729,94.700 29.791,94.669 29.867 C 94.622 29.985,94.020 30.371,91.942 31.616 C 91.758 31.726,91.570 31.857,91.524 31.907 C 91.478 31.957,91.083 32.220,90.646 32.492 C 90.209 32.763,89.806 33.136,89.751 33.319 C 89.695 33.503,89.443 34.142,89.190 34.739 C 88.937 35.336,88.450 36.501,88.108 37.328 C 87.439 38.944,87.244 39.401,86.698 40.617 C 86.505 41.048,86.347 41.468,86.347 41.549 C 86.347 41.631,86.159 42.067,85.930 42.519 C 85.700 42.971,85.513 43.397,85.512 43.467 C 85.512 43.537,85.352 43.951,85.158 44.386 C 84.964 44.821,84.695 45.441,84.562 45.762 C 84.429 46.084,84.257 46.497,84.181 46.681 C 84.105 46.864,83.847 47.449,83.608 47.980 C 83.369 48.510,83.173 49.040,83.173 49.157 C 83.173 49.274,83.110 49.441,83.034 49.528 C 82.957 49.615,82.723 50.100,82.515 50.605 C 82.307 51.111,82.024 51.787,81.886 52.109 C 81.633 52.700,81.553 52.892,81.117 53.946 C 80.984 54.267,80.678 54.964,80.438 55.495 C 80.197 56.026,80.000 56.556,80.000 56.673 C 80.000 56.790,79.938 56.957,79.862 57.044 C 79.786 57.131,79.437 57.916,79.087 58.789 C 78.737 59.662,78.386 60.447,78.307 60.534 C 78.228 60.622,78.163 60.789,78.163 60.906 C 78.163 61.023,77.966 61.552,77.725 62.083 C 77.485 62.614,77.179 63.311,77.046 63.633 C 76.591 64.733,76.525 64.886,76.175 65.677 C 75.982 66.112,75.825 66.511,75.825 66.564 C 75.825 66.617,75.637 67.071,75.407 67.573 C 75.177 68.075,74.990 68.525,74.990 68.574 C 74.990 68.622,74.848 68.977,74.675 69.362 C 74.501 69.747,74.201 70.416,74.006 70.847 C 73.812 71.278,73.653 71.671,73.653 71.719 C 73.653 71.768,73.428 72.300,73.152 72.902 C 72.877 73.504,72.651 74.036,72.651 74.086 C 72.651 74.135,72.463 74.587,72.234 75.089 C 72.004 75.591,71.816 76.036,71.816 76.079 C 71.816 76.160,70.163 80.089,69.626 81.285 C 69.453 81.671,69.311 82.025,69.311 82.074 C 69.311 82.122,69.123 82.572,68.894 83.074 C 68.664 83.576,68.476 84.027,68.476 84.077 C 68.476 84.126,68.251 84.659,67.975 85.261 C 67.699 85.863,67.474 86.395,67.474 86.443 C 67.474 86.492,67.331 86.847,67.157 87.233 C 66.983 87.618,66.637 88.422,66.388 89.019 C 66.140 89.616,65.794 90.420,65.619 90.805 C 65.445 91.190,65.303 91.546,65.303 91.594 C 65.303 91.643,65.077 92.175,64.802 92.777 C 64.526 93.378,64.301 93.910,64.301 93.959 C 64.301 94.008,64.158 94.363,63.983 94.748 C 63.574 95.650,61.519 100.539,61.092 101.628 C 60.911 102.088,60.583 102.860,60.361 103.345 C 60.140 103.830,59.958 104.267,59.958 104.316 C 59.958 104.365,59.770 104.816,59.541 105.318 C 59.311 105.820,59.123 106.271,59.123 106.319 C 59.123 106.367,58.964 106.760,58.770 107.191 C 58.576 107.622,58.275 108.290,58.102 108.676 C 57.929 109.061,57.787 109.416,57.787 109.465 C 57.787 109.513,57.562 110.046,57.286 110.647 C 57.010 111.249,56.785 111.782,56.785 111.831 C 56.785 111.881,56.597 112.332,56.367 112.834 C 56.138 113.336,55.950 113.786,55.950 113.835 C 55.950 113.883,55.808 114.238,55.635 114.623 C 55.462 115.008,54.927 116.263,54.445 117.411 C 53.963 118.559,53.362 119.987,53.111 120.585 C 52.859 121.182,52.259 122.610,51.777 123.758 C 51.295 124.906,50.759 126.161,50.586 126.546 C 50.413 126.932,50.271 127.286,50.271 127.335 C 50.271 127.383,50.084 127.833,49.854 128.335 C 49.624 128.837,49.436 129.288,49.436 129.338 C 49.436 129.387,49.211 129.920,48.935 130.522 C 48.660 131.124,48.434 131.656,48.434 131.704 C 48.434 131.753,48.291 132.108,48.116 132.494 C 47.941 132.879,47.331 134.322,46.761 135.699 C 46.190 137.077,45.685 138.242,45.639 138.288 C 45.493 138.432,46.247 94.397,46.699 76.367 C 46.827 71.302,46.818 71.257,45.980 72.364 C 45.686 72.752,45.144 73.407,44.774 73.820 C 44.404 74.234,44.099 74.625,44.097 74.691 C 44.094 74.756,43.955 74.944,43.789 75.108 C 43.622 75.273,43.115 75.896,42.661 76.493 C 42.208 77.090,41.796 77.616,41.745 77.662 C 41.694 77.708,41.431 78.046,41.161 78.413 C 40.891 78.781,40.629 79.119,40.580 79.165 C 40.531 79.211,40.193 79.662,39.830 80.167 C 39.467 80.672,39.037 81.231,38.875 81.409 C 38.713 81.587,38.580 81.782,38.580 81.843 C 38.580 81.903,38.393 82.171,38.163 82.437 C 37.934 82.704,37.746 82.974,37.746 83.036 C 37.745 83.098,37.647 83.249,37.527 83.370 C 37.161 83.740,33.845 88.511,32.904 90.021 C 32.417 90.802,31.966 91.478,31.903 91.524 C 31.839 91.570,31.572 91.983,31.309 92.443 C 31.046 92.902,30.789 93.315,30.739 93.361 C 30.574 93.512,30.222 94.107,30.122 94.405 C 30.068 94.566,29.969 94.697,29.903 94.697 C 29.837 94.697,29.689 94.904,29.575 95.157 C 29.461 95.409,28.998 96.194,28.546 96.901 C 28.094 97.608,27.724 98.226,27.724 98.276 C 27.724 98.325,27.461 98.776,27.140 99.279 C 26.818 99.782,26.555 100.271,26.555 100.368 C 26.555 100.464,26.480 100.543,26.388 100.543 C 26.296 100.543,26.221 100.618,26.221 100.711 C 26.221 100.803,25.743 101.724,25.158 102.757 C 23.890 104.996,22.549 107.534,21.096 110.444 L 20.030 112.580 19.783 117.960 C 19.541 123.231,19.393 126.150,19.044 132.526 C 18.948 134.271,18.757 138.029,18.619 140.877 C 18.368 146.069,18.199 149.332,17.874 155.240 C 17.778 156.985,17.587 160.781,17.450 163.674 C 17.313 166.568,17.127 170.251,17.038 171.858 C 16.949 173.466,16.760 177.186,16.618 180.125 C 16.373 185.196,16.251 187.555,15.868 194.614 C 15.777 196.290,15.588 200.029,15.448 202.923 C 15.309 205.816,15.124 209.499,15.037 211.106 C 14.950 212.714,14.802 215.608,14.708 217.537 C 14.614 219.466,14.491 221.326,14.436 221.670 C 14.317 222.398,14.360 222.409,16.200 222.119 C 16.797 222.025,17.737 221.879,18.288 221.795 C 18.839 221.712,19.779 221.561,20.376 221.462 C 20.973 221.362,22.251 221.172,23.215 221.040 C 24.180 220.908,25.457 220.720,26.054 220.622 C 26.651 220.525,27.891 220.339,28.810 220.211 C 29.729 220.082,30.931 219.903,31.482 219.812 C 32.870 219.585,34.689 219.307,36.660 219.021 C 38.562 218.745,39.859 218.547,41.420 218.294 C 42.563 218.109,46.080 217.620,46.269 217.620 C 46.329 217.620,46.430 213.656,46.493 208.810 C 46.555 203.965,46.676 195.866,46.762 190.814 C 46.848 185.762,46.961 177.946,47.014 173.445 C 47.066 168.944,47.152 164.707,47.203 164.030 L 47.297 162.800 47.812 163.362 C 48.095 163.672,48.814 164.489,49.410 165.177 C 50.006 165.866,50.699 166.656,50.949 166.931 C 51.199 167.207,51.731 167.808,52.132 168.267 C 52.532 168.727,52.973 169.215,53.111 169.353 C 53.248 169.491,53.848 170.167,54.444 170.856 C 55.039 171.545,55.577 172.147,55.640 172.193 C 55.703 172.240,55.968 172.546,56.228 172.873 C 56.668 173.426,58.612 175.627,59.374 176.436 C 59.557 176.631,60.196 177.353,60.793 178.040 C 61.390 178.728,61.917 179.328,61.964 179.374 C 62.011 179.420,62.574 180.057,63.217 180.790 C 64.291 182.016,65.023 182.843,65.887 183.807 C 66.071 184.012,66.635 184.651,67.140 185.228 C 67.645 185.804,68.246 186.476,68.476 186.721 C 68.706 186.966,69.305 187.649,69.807 188.239 C 70.310 188.828,70.836 189.424,70.976 189.562 C 71.117 189.700,71.719 190.376,72.314 191.065 C 72.909 191.754,73.440 192.355,73.494 192.401 C 73.547 192.447,74.448 193.461,75.495 194.656 C 76.542 195.850,77.440 196.864,77.489 196.910 C 77.538 196.956,78.067 197.557,78.664 198.246 C 79.261 198.935,79.787 199.537,79.833 199.582 C 80.002 199.751,82.460 202.523,82.934 203.080 C 83.203 203.397,83.612 203.849,83.841 204.086 C 84.071 204.322,84.671 205.003,85.174 205.598 C 85.677 206.194,86.241 206.834,86.427 207.022 C 86.612 207.210,87.253 207.924,87.850 208.608 C 88.447 209.293,89.146 210.089,89.404 210.377 C 89.661 210.665,89.969 211.034,90.088 211.196 C 90.320 211.513,90.612 211.505,93.278 211.103 C 93.921 211.006,95.236 210.820,96.200 210.689 C 97.857 210.465,99.022 210.298,101.545 209.920 C 102.142 209.830,103.420 209.650,104.384 209.520 C 105.349 209.389,106.645 209.204,107.265 209.109 C 109.409 208.779,110.488 208.622,112.484 208.352 C 114.373 208.097,115.264 207.968,117.662 207.603 C 118.213 207.519,119.566 207.329,120.668 207.180 C 121.770 207.031,123.161 206.836,123.758 206.746 C 124.355 206.657,125.633 206.477,126.597 206.347 C 128.537 206.085,130.171 205.846,131.691 205.603 C 132.242 205.515,133.463 205.352,134.405 205.241 C 135.347 205.129,136.117 204.986,136.117 204.921 C 136.117 204.804,134.514 203.230,132.118 200.993 C 131.435 200.355,130.494 199.457,130.028 198.998 C 129.561 198.539,128.245 197.299,127.103 196.242 C 125.961 195.186,124.679 193.983,124.255 193.570 C 123.830 193.157,122.887 192.263,122.159 191.584 C 121.431 190.906,120.080 189.628,119.158 188.745 C 118.235 187.862,116.244 185.975,114.732 184.552 C 110.273 180.353,109.544 179.663,108.728 178.873 C 108.301 178.459,107.055 177.282,105.959 176.257 C 104.863 175.233,103.546 173.992,103.032 173.502 C 101.016 171.578,97.260 168.025,96.785 167.592 C 96.509 167.341,95.116 166.022,93.688 164.661 C 92.260 163.300,90.926 162.043,90.724 161.867 C 90.521 161.692,89.180 160.429,87.742 159.062 C 84.956 156.412,84.502 155.982,82.317 153.921 C 79.016 150.807,75.498 147.479,74.430 146.460 C 73.434 145.510,73.304 145.319,73.460 145.040 C 73.560 144.863,73.822 144.305,74.043 143.800 C 74.265 143.294,74.712 142.317,75.036 141.628 C 75.957 139.674,76.827 137.763,76.827 137.697 C 76.827 137.664,77.157 136.938,77.561 136.083 C 77.964 135.229,78.489 134.098,78.727 133.570 C 78.965 133.043,79.416 132.066,79.729 131.399 C 80.042 130.733,80.466 129.812,80.671 129.353 C 81.221 128.118,82.354 125.669,83.743 122.709 C 84.164 121.811,84.509 121.045,84.509 121.006 C 84.509 120.967,84.894 120.124,85.364 119.132 C 85.834 118.140,86.355 117.014,86.522 116.631 C 86.688 116.248,87.013 115.534,87.243 115.044 C 87.473 114.555,87.891 113.647,88.173 113.027 C 89.328 110.484,89.794 109.472,91.155 106.555 C 91.519 105.775,91.985 104.760,92.192 104.301 C 92.398 103.841,92.813 102.939,93.114 102.296 C 94.364 99.629,95.031 98.167,95.031 98.101 C 95.031 98.062,95.252 97.562,95.521 96.990 C 95.791 96.418,96.308 95.311,96.671 94.530 C 97.033 93.749,97.593 92.547,97.914 91.858 C 98.235 91.169,98.662 90.230,98.862 89.770 C 99.063 89.311,99.442 88.484,99.705 87.933 C 100.333 86.618,101.224 84.680,102.546 81.754 C 102.753 81.294,103.289 80.142,103.737 79.192 C 104.185 78.243,104.551 77.439,104.551 77.407 C 104.551 77.374,104.844 76.723,105.202 75.960 C 105.888 74.498,106.551 73.060,107.402 71.190 C 107.986 69.907,108.250 69.336,109.230 67.223 C 109.614 66.397,110.100 65.344,110.311 64.885 C 111.239 62.863,111.738 61.784,112.381 60.414 C 112.759 59.609,113.069 58.914,113.069 58.870 C 113.069 58.826,113.327 58.245,113.642 57.579 C 113.958 56.913,114.437 55.879,114.708 55.282 C 114.979 54.685,115.519 53.520,115.908 52.693 C 116.298 51.866,116.800 50.777,117.026 50.271 C 117.252 49.766,117.612 48.977,117.826 48.518 C 118.041 48.058,118.493 47.081,118.831 46.347 C 119.169 45.612,119.656 44.559,119.912 44.008 C 120.169 43.457,120.546 42.630,120.750 42.171 C 121.252 41.040,121.973 39.477,122.856 37.608 C 123.260 36.752,123.591 36.024,123.591 35.990 C 123.591 35.956,123.919 35.229,124.321 34.373 C 124.722 33.518,125.218 32.443,125.423 31.983 C 125.628 31.524,126.059 30.585,126.382 29.896 C 126.704 29.207,127.141 28.267,127.352 27.808 C 128.205 25.953,128.898 24.436,129.147 23.883 C 129.291 23.562,129.829 22.408,130.341 21.319 C 130.854 20.230,131.273 19.312,131.273 19.279 C 131.273 19.246,131.687 18.346,132.192 17.279 C 132.697 16.212,133.111 15.311,133.111 15.278 C 133.111 15.202,134.737 11.705,134.953 11.318 C 135.298 10.698,135.134 10.708,133.111 11.426 M282.850 18.253 C 282.804 18.548,282.682 19.766,282.580 20.960 C 282.478 22.154,282.332 23.770,282.255 24.551 C 282.179 25.332,281.998 27.211,281.854 28.727 C 281.709 30.242,281.515 32.196,281.421 33.069 C 281.116 35.916,280.912 37.951,280.668 40.585 C 280.424 43.218,280.220 45.253,279.915 48.100 C 279.821 48.973,279.627 50.927,279.483 52.443 C 279.338 53.958,279.158 55.837,279.081 56.618 C 279.005 57.399,278.824 59.278,278.680 60.793 C 278.536 62.309,278.342 64.263,278.248 65.136 C 277.943 67.982,277.739 70.018,277.495 72.651 C 277.251 75.285,277.047 77.320,276.742 80.167 C 276.648 81.040,276.453 82.994,276.309 84.509 C 276.165 86.025,275.985 87.904,275.908 88.685 C 275.832 89.466,275.651 91.344,275.507 92.860 C 275.363 94.376,275.168 96.330,275.075 97.203 C 274.769 100.049,274.565 102.085,274.322 104.718 C 274.078 107.351,273.874 109.387,273.568 112.234 C 273.475 113.106,273.280 115.061,273.136 116.576 C 272.992 118.092,272.811 119.971,272.735 120.752 C 272.658 121.532,272.478 123.411,272.334 124.927 C 272.190 126.443,271.991 128.434,271.892 129.353 C 271.597 132.097,271.434 133.752,271.250 135.866 C 271.154 136.969,270.994 138.622,270.895 139.541 C 270.795 140.459,270.643 141.906,270.555 142.756 C 270.468 143.605,270.319 145.033,270.225 145.929 C 270.130 146.825,270.020 147.869,269.980 148.250 C 269.890 149.105,269.479 148.972,274.572 149.729 C 276.100 149.955,277.365 150.153,279.499 150.499 C 280.050 150.589,281.215 150.768,282.088 150.898 C 283.616 151.125,284.882 151.323,287.015 151.669 C 287.566 151.758,288.731 151.937,289.603 152.067 C 291.236 152.309,292.673 152.535,294.280 152.800 C 295.377 152.981,295.321 153.022,295.463 151.936 C 295.570 151.122,295.742 149.933,296.135 147.307 C 296.224 146.710,296.404 145.432,296.534 144.468 C 296.799 142.510,297.032 140.909,297.287 139.290 C 297.382 138.693,297.578 137.303,297.724 136.200 C 297.870 135.098,298.048 133.820,298.121 133.361 C 298.194 132.902,298.377 131.624,298.528 130.522 C 298.679 129.420,298.869 128.067,298.951 127.516 C 299.032 126.965,299.183 125.950,299.285 125.261 C 299.387 124.572,299.578 123.219,299.708 122.255 C 300.102 119.337,300.298 118.025,300.429 117.419 L 300.553 116.842 300.924 117.470 C 301.128 117.816,301.294 118.163,301.294 118.242 C 301.294 118.321,301.351 118.411,301.420 118.441 C 301.571 118.508,302.281 119.716,302.410 120.125 C 302.461 120.286,302.569 120.418,302.650 120.418 C 302.731 120.418,302.797 120.512,302.797 120.629 C 302.797 120.745,303.061 121.230,303.382 121.708 C 303.704 122.185,303.967 122.635,303.967 122.707 C 303.967 122.780,304.268 123.290,304.635 123.841 C 305.002 124.392,305.302 124.907,305.302 124.985 C 305.302 125.062,305.442 125.325,305.613 125.569 C 305.783 125.813,306.112 126.351,306.343 126.764 C 306.574 127.177,307.231 128.305,307.804 129.269 C 308.376 130.234,309.015 131.324,309.224 131.691 C 309.634 132.412,310.467 133.851,311.399 135.449 C 311.720 136.000,312.246 136.902,312.568 137.453 C 313.502 139.054,314.180 140.224,315.570 142.630 C 316.287 143.871,317.013 145.085,317.184 145.328 C 317.355 145.572,317.495 145.820,317.495 145.879 C 317.495 145.938,317.758 146.398,318.079 146.901 C 318.401 147.403,318.664 147.852,318.664 147.899 C 318.664 147.945,318.951 148.451,319.301 149.023 C 320.694 151.295,321.169 152.125,321.169 152.287 C 321.169 152.380,321.225 152.482,321.294 152.512 C 321.445 152.579,322.156 153.787,322.285 154.196 C 322.336 154.357,322.444 154.489,322.525 154.489 C 322.606 154.489,322.672 154.567,322.672 154.664 C 322.672 154.760,322.935 155.250,323.257 155.752 C 323.578 156.255,323.841 156.704,323.841 156.751 C 323.841 156.797,324.129 157.303,324.481 157.875 C 324.833 158.447,325.447 159.478,325.845 160.167 C 326.242 160.856,326.764 161.758,327.005 162.171 C 327.245 162.585,327.570 163.148,327.728 163.424 C 329.492 166.511,332.684 171.961,333.129 172.649 C 333.440 173.130,333.695 173.574,333.695 173.636 C 333.695 173.699,333.908 174.094,334.169 174.516 C 334.430 174.937,334.968 175.846,335.366 176.534 C 335.764 177.223,336.378 178.255,336.730 178.827 C 337.082 179.399,337.370 179.905,337.370 179.951 C 337.370 179.997,337.633 180.446,337.954 180.949 C 338.276 181.452,338.539 181.942,338.539 182.038 C 338.539 182.134,338.597 182.213,338.669 182.213 C 338.741 182.213,338.886 182.420,338.991 182.672 C 339.243 183.274,339.758 184.119,339.916 184.189 C 339.985 184.220,340.042 184.334,340.042 184.442 C 340.042 184.550,340.305 185.030,340.626 185.507 C 340.948 185.985,341.211 186.426,341.211 186.489 C 341.211 186.552,341.511 187.079,341.879 187.661 C 342.246 188.242,342.547 188.756,342.547 188.803 C 342.547 188.849,342.810 189.298,343.132 189.801 C 343.453 190.303,343.716 190.754,343.716 190.803 C 343.716 190.851,343.979 191.302,344.301 191.805 C 344.622 192.308,344.885 192.762,344.885 192.814 C 344.885 192.866,345.080 193.217,345.318 193.594 C 345.556 193.971,346.319 195.266,347.014 196.472 C 347.708 197.678,348.589 199.190,348.971 199.833 C 349.353 200.476,349.972 201.528,350.345 202.171 C 350.719 202.814,351.794 204.656,352.735 206.263 C 353.677 207.871,354.636 209.524,354.867 209.937 C 355.099 210.351,355.418 210.877,355.576 211.106 C 355.735 211.336,355.914 211.685,355.975 211.882 C 356.131 212.383,356.418 212.417,362.867 212.701 C 365.975 212.838,369.908 213.024,371.608 213.114 C 378.266 213.467,381.247 213.618,386.388 213.858 C 396.492 214.331,398.415 214.433,399.207 214.539 C 399.766 214.614,400.000 214.587,400.000 214.448 C 400.000 214.290,397.598 210.703,397.035 210.021 C 396.960 209.929,396.487 209.253,395.985 208.518 C 395.484 207.783,395.035 207.144,394.989 207.098 C 394.943 207.052,394.682 206.676,394.409 206.263 C 394.136 205.850,393.761 205.315,393.575 205.075 C 393.388 204.836,393.139 204.497,393.021 204.324 C 392.902 204.150,392.543 203.633,392.221 203.173 C 391.900 202.714,391.358 201.925,391.017 201.420 C 390.676 200.914,390.303 200.402,390.188 200.280 C 390.073 200.159,389.979 200.004,389.979 199.936 C 389.979 199.868,389.838 199.661,389.665 199.476 C 389.493 199.290,389.143 198.806,388.889 198.400 C 388.634 197.994,388.378 197.624,388.319 197.578 C 388.261 197.532,387.807 196.894,387.312 196.159 C 386.517 194.980,385.224 193.136,384.850 192.647 C 384.777 192.552,384.309 191.876,383.810 191.143 C 383.310 190.411,382.855 189.775,382.799 189.729 C 382.742 189.683,382.535 189.379,382.337 189.053 C 382.139 188.727,381.824 188.284,381.636 188.067 C 381.448 187.851,381.294 187.624,381.294 187.563 C 381.294 187.503,381.163 187.308,381.002 187.130 C 380.841 186.952,380.435 186.392,380.099 185.887 C 379.413 184.856,377.462 182.052,377.251 181.795 C 377.176 181.704,376.529 180.788,375.813 179.762 C 375.098 178.735,374.385 177.721,374.229 177.507 C 373.923 177.089,367.735 168.245,366.303 166.180 C 365.826 165.491,365.373 164.852,365.298 164.760 C 365.223 164.668,364.718 163.954,364.175 163.173 C 361.564 159.418,361.086 158.735,360.954 158.578 C 360.876 158.485,360.400 157.809,359.897 157.075 C 358.886 155.603,357.990 154.328,357.785 154.071 C 357.712 153.979,357.424 153.566,357.146 153.152 C 356.868 152.739,356.349 151.987,355.992 151.482 C 355.635 150.977,355.117 150.225,354.841 149.812 C 354.565 149.399,354.293 149.023,354.238 148.977 C 354.182 148.931,353.975 148.627,353.777 148.301 C 353.580 147.976,353.264 147.532,353.076 147.316 C 352.889 147.099,352.735 146.872,352.735 146.812 C 352.735 146.751,352.594 146.550,352.421 146.365 C 352.248 146.180,351.898 145.697,351.643 145.293 C 351.388 144.889,351.079 144.458,350.955 144.334 C 350.832 144.211,350.731 144.054,350.731 143.986 C 350.731 143.918,350.599 143.717,350.438 143.539 C 350.278 143.361,349.868 142.802,349.527 142.296 C 348.197 140.321,346.838 138.368,346.739 138.288 C 346.682 138.242,346.419 137.870,346.154 137.462 C 345.889 137.053,345.609 136.640,345.531 136.543 C 345.221 136.156,344.279 134.835,343.978 134.368 C 343.803 134.094,343.595 133.794,343.516 133.700 C 343.438 133.605,342.198 131.837,340.762 129.770 C 339.326 127.704,338.106 125.975,338.052 125.929 C 337.998 125.883,337.596 125.311,337.159 124.659 C 336.722 124.006,336.234 123.310,336.074 123.113 C 335.914 122.916,335.294 122.040,334.697 121.167 C 334.100 120.293,332.202 117.569,330.479 115.113 C 328.756 112.657,327.253 110.507,327.139 110.336 C 327.024 110.164,326.790 109.839,326.617 109.614 C 326.236 109.115,326.340 109.014,327.516 108.741 C 328.021 108.624,328.660 108.461,328.935 108.378 C 329.211 108.295,330.263 108.033,331.273 107.795 C 332.284 107.557,333.336 107.293,333.612 107.208 C 333.887 107.124,334.752 106.899,335.532 106.709 C 336.868 106.384,338.199 106.057,339.541 105.724 C 339.862 105.644,340.764 105.423,341.545 105.233 C 342.326 105.043,343.190 104.818,343.466 104.733 C 343.741 104.649,344.793 104.385,345.804 104.147 C 346.814 103.909,347.866 103.646,348.142 103.563 C 348.418 103.479,349.169 103.291,349.812 103.143 C 351.000 102.871,351.915 102.639,352.818 102.382 C 353.094 102.303,353.883 102.113,354.572 101.960 C 355.261 101.806,356.013 101.618,356.242 101.541 C 356.472 101.464,357.787 101.128,359.165 100.795 C 360.543 100.461,361.858 100.125,362.088 100.047 C 362.317 99.970,363.069 99.781,363.758 99.627 C 364.447 99.473,365.236 99.283,365.511 99.205 C 366.370 98.960,367.299 98.720,368.685 98.385 C 370.500 97.946,372.181 97.503,372.246 97.447 C 372.275 97.422,372.106 97.095,371.870 96.721 C 371.634 96.346,371.441 96.001,371.441 95.954 C 371.441 95.859,367.981 90.402,367.741 90.118 C 367.656 90.019,367.204 89.336,366.734 88.601 C 366.265 87.866,365.831 87.228,365.771 87.182 C 365.710 87.136,365.488 86.814,365.278 86.467 C 365.067 86.120,364.808 85.743,364.702 85.629 C 364.596 85.515,364.099 84.822,363.597 84.089 C 363.095 83.356,362.621 82.681,362.544 82.589 C 362.466 82.497,361.877 81.708,361.235 80.835 C 359.760 78.831,359.450 78.420,358.831 77.650 C 358.555 77.307,357.954 76.550,357.495 75.968 C 356.598 74.832,356.452 74.651,355.466 73.462 C 355.112 73.036,354.559 72.364,354.238 71.969 C 353.302 70.821,352.673 70.081,352.401 69.812 C 352.263 69.674,351.873 69.223,351.537 68.810 C 351.200 68.397,350.517 67.612,350.020 67.067 L 349.115 66.075 345.792 68.069 C 343.964 69.165,342.374 70.087,342.257 70.117 C 342.141 70.146,342.046 70.240,342.046 70.325 C 342.046 70.411,341.975 70.480,341.888 70.480 C 341.801 70.480,340.555 71.194,339.119 72.067 C 337.683 72.939,336.445 73.653,336.368 73.653 C 336.291 73.653,336.203 73.710,336.173 73.779 C 336.142 73.848,335.891 74.027,335.616 74.177 C 335.340 74.328,333.349 75.520,331.190 76.827 C 329.031 78.133,327.040 79.326,326.764 79.476 C 326.489 79.626,326.238 79.806,326.207 79.875 C 326.177 79.944,326.087 80.000,326.007 80.000 C 325.928 80.000,324.688 80.714,323.252 81.587 C 321.817 82.459,320.573 83.173,320.488 83.173 C 320.403 83.173,320.334 83.243,320.334 83.328 C 320.334 83.413,320.237 83.507,320.119 83.537 C 319.865 83.601,314.891 86.557,312.113 88.295 C 311.037 88.969,310.125 89.520,310.089 89.520 C 310.052 89.520,308.840 90.234,307.395 91.106 C 305.950 91.979,304.700 92.693,304.618 92.693 C 304.535 92.693,304.468 92.768,304.468 92.860 C 304.468 92.952,304.383 93.027,304.279 93.027 C 304.082 93.027,304.117 92.502,304.465 90.271 C 304.566 89.628,304.755 88.313,304.885 87.349 C 305.016 86.384,305.201 85.088,305.296 84.468 C 305.392 83.848,305.548 82.833,305.644 82.213 C 305.739 81.593,305.921 80.334,306.048 79.415 C 306.264 77.850,306.443 76.648,306.819 74.238 C 306.905 73.687,307.095 72.372,307.241 71.315 C 307.387 70.259,307.570 68.981,307.647 68.476 C 307.725 67.971,307.903 66.731,308.044 65.720 C 308.287 63.974,308.442 62.923,308.820 60.459 C 308.912 59.862,309.097 58.585,309.231 57.620 C 309.465 55.947,309.579 55.167,309.979 52.526 C 310.076 51.883,310.265 50.568,310.398 49.603 C 310.624 47.967,310.766 47.023,311.163 44.509 C 311.251 43.958,311.431 42.718,311.564 41.754 C 311.831 39.820,312.061 38.228,312.312 36.576 C 312.636 34.447,312.588 34.219,311.691 33.661 C 311.255 33.389,310.860 33.122,310.814 33.068 C 310.671 32.898,304.471 29.003,302.714 27.979 C 301.795 27.443,300.706 26.803,300.292 26.555 C 299.169 25.882,298.203 25.346,296.534 24.471 C 295.708 24.038,294.952 23.618,294.855 23.539 C 294.630 23.355,286.004 19.047,284.676 18.455 C 282.846 17.639,282.946 17.650,282.850 18.253 M179.022 156.566 C 178.950 156.638,177.394 156.759,170.271 157.250 C 168.342 157.383,165.825 157.565,164.676 157.654 C 163.528 157.743,161.537 157.898,160.251 157.998 C 158.965 158.098,156.389 158.277,154.527 158.397 C 152.666 158.516,151.098 158.658,151.044 158.712 C 150.941 158.815,151.234 162.379,151.809 168.017 C 151.907 168.981,152.099 171.086,152.234 172.693 C 152.369 174.301,152.554 176.367,152.645 177.286 C 153.276 183.658,153.469 185.789,153.479 186.484 L 153.486 186.997 156.952 187.191 C 158.858 187.299,162.071 187.464,164.092 187.560 C 166.113 187.655,169.081 187.806,170.689 187.894 C 172.296 187.982,175.115 188.095,176.952 188.145 C 178.789 188.195,180.668 188.274,181.127 188.321 L 181.962 188.406 181.924 186.938 C 181.903 186.130,181.811 183.779,181.719 181.712 C 181.627 179.645,181.474 176.150,181.379 173.946 C 181.284 171.741,181.134 168.359,181.045 166.430 C 180.956 164.501,180.836 161.476,180.777 159.708 L 180.671 156.493 179.883 156.493 C 179.450 156.493,179.062 156.526,179.022 156.566 M202.525 160.697 C 202.401 163.683,202.059 189.923,202.144 190.007 C 202.172 190.036,202.904 190.137,203.770 190.232 C 205.298 190.400,206.527 190.543,209.562 190.905 C 210.365 191.001,212.075 191.189,213.361 191.323 C 215.953 191.594,217.786 191.798,220.042 192.067 C 220.868 192.165,222.597 192.358,223.883 192.494 C 225.169 192.631,226.823 192.812,227.557 192.897 C 229.571 193.129,231.720 193.372,233.474 193.566 C 234.340 193.662,235.079 193.771,235.116 193.808 C 235.197 193.889,234.871 196.938,234.320 201.253 C 234.220 202.033,234.025 203.687,233.886 204.927 C 233.748 206.167,233.563 207.745,233.477 208.434 C 233.390 209.123,233.208 210.701,233.071 211.942 C 232.934 213.182,232.744 214.797,232.647 215.532 C 232.419 217.272,232.208 219.035,231.908 221.712 C 231.775 222.906,231.584 224.522,231.485 225.303 C 231.386 226.084,231.234 227.286,231.147 227.975 C 231.060 228.664,230.913 229.979,230.821 230.898 C 230.729 231.816,230.580 233.094,230.492 233.737 C 230.248 235.503,230.004 237.500,229.729 240.000 C 229.486 242.197,229.209 244.497,229.044 245.678 C 228.999 246.000,228.853 247.278,228.720 248.518 C 228.480 250.750,228.297 252.273,227.978 254.697 C 227.888 255.386,227.693 257.040,227.546 258.372 C 227.250 261.049,227.127 262.100,226.731 265.303 C 226.584 266.497,226.385 268.150,226.290 268.977 C 226.195 269.804,226.053 271.006,225.975 271.649 C 225.561 275.050,225.311 277.642,225.389 277.721 C 225.476 277.807,231.590 277.534,236.159 277.240 C 241.740 276.881,244.063 276.742,248.448 276.507 C 251.028 276.368,253.445 276.206,253.819 276.146 L 254.500 276.037 254.689 274.929 C 255.016 273.019,255.039 272.862,255.286 270.981 C 255.418 269.971,255.603 268.656,255.698 268.058 C 255.792 267.461,255.986 266.109,256.128 265.052 C 256.270 263.996,256.457 262.662,256.544 262.088 C 256.631 261.514,256.772 260.574,256.859 260.000 C 256.946 259.426,257.139 258.054,257.288 256.952 C 257.437 255.850,257.634 254.459,257.727 253.862 C 257.819 253.265,257.959 252.363,258.038 251.858 C 258.116 251.353,258.303 250.038,258.452 248.935 C 258.602 247.833,258.798 246.443,258.889 245.846 C 258.979 245.248,259.160 243.971,259.290 243.006 C 259.555 241.044,259.788 239.442,260.043 237.829 C 260.138 237.232,260.326 235.916,260.461 234.906 C 260.596 233.896,260.783 232.580,260.877 231.983 C 261.141 230.295,261.371 228.715,261.629 226.806 C 261.759 225.841,261.940 224.564,262.030 223.967 C 262.120 223.370,262.311 222.017,262.453 220.960 C 262.595 219.904,262.790 218.551,262.887 217.954 C 263.139 216.395,263.323 215.138,263.631 212.860 C 263.780 211.758,263.973 210.386,264.059 209.812 C 264.146 209.238,264.288 208.299,264.375 207.724 C 264.462 207.150,264.649 205.816,264.792 204.760 C 264.935 203.704,265.123 202.388,265.210 201.837 C 265.297 201.286,265.460 200.132,265.573 199.272 L 265.778 197.708 266.459 197.801 C 266.834 197.852,267.610 197.973,268.184 198.070 C 270.583 198.475,271.391 198.608,272.818 198.830 C 273.645 198.959,275.223 199.222,276.326 199.415 C 277.428 199.609,279.006 199.872,279.833 200.001 C 280.660 200.130,281.825 200.316,282.422 200.415 C 283.019 200.515,284.184 200.703,285.010 200.833 C 286.467 201.063,287.598 201.248,289.687 201.600 C 290.238 201.693,291.365 201.876,292.192 202.006 C 294.366 202.349,295.576 202.551,296.618 202.744 C 301.538 203.656,302.351 203.669,302.489 202.839 C 302.695 201.604,303.132 199.171,303.284 198.413 C 303.545 197.110,303.809 195.705,304.067 194.238 C 304.204 193.457,304.388 192.443,304.475 191.983 C 304.563 191.524,304.748 190.509,304.885 189.729 C 305.023 188.948,305.211 187.914,305.303 187.432 C 305.395 186.950,305.545 186.161,305.637 185.678 C 305.729 185.196,305.917 184.163,306.055 183.382 C 306.193 182.601,306.374 181.624,306.457 181.211 C 306.707 179.964,306.977 178.529,307.227 177.119 C 307.357 176.384,307.512 175.614,307.572 175.407 C 307.646 175.148,307.609 175.030,307.452 175.028 C 307.326 175.027,306.585 174.908,305.804 174.765 C 305.023 174.622,303.670 174.402,302.797 174.277 C 301.925 174.152,300.760 173.966,300.209 173.864 C 299.105 173.660,298.083 173.493,295.449 173.089 C 294.484 172.940,293.357 172.760,292.944 172.687 C 292.530 172.614,291.441 172.439,290.522 172.299 C 289.603 172.159,288.363 171.962,287.766 171.862 C 287.169 171.761,286.230 171.603,285.678 171.510 C 285.127 171.417,284.000 171.235,283.173 171.104 C 281.581 170.853,280.140 170.618,278.497 170.341 C 277.946 170.248,276.818 170.066,275.992 169.935 C 275.165 169.805,274.000 169.617,273.403 169.518 C 272.806 169.418,271.641 169.231,270.814 169.100 C 269.222 168.849,267.781 168.614,266.138 168.337 C 265.587 168.244,264.459 168.061,263.633 167.931 C 262.040 167.680,260.599 167.445,258.956 167.168 C 258.405 167.075,257.278 166.892,256.451 166.762 C 255.624 166.632,254.459 166.443,253.862 166.342 C 253.265 166.242,252.100 166.057,251.273 165.931 C 250.447 165.806,249.301 165.622,248.727 165.524 C 246.909 165.212,245.639 165.002,244.092 164.758 C 241.982 164.425,240.743 164.220,239.582 164.013 C 239.031 163.914,237.866 163.725,236.994 163.592 C 236.121 163.460,234.956 163.276,234.405 163.185 C 233.854 163.093,232.200 162.824,230.731 162.587 C 229.261 162.351,227.608 162.083,227.056 161.991 C 226.505 161.900,225.378 161.719,224.551 161.589 C 223.724 161.458,222.597 161.276,222.046 161.183 C 220.403 160.906,218.962 160.671,217.370 160.420 C 216.543 160.289,215.378 160.101,214.781 160.002 C 214.184 159.903,213.244 159.746,212.693 159.654 C 212.142 159.563,211.015 159.381,210.188 159.251 C 209.361 159.120,208.196 158.932,207.599 158.833 C 207.002 158.734,205.800 158.544,204.927 158.411 C 204.054 158.277,203.182 158.124,202.989 158.069 C 202.645 157.972,202.635 158.029,202.525 160.697 M155.328 201.437 C 155.331 201.749,155.408 202.981,155.499 204.175 C 155.590 205.370,155.742 207.361,155.835 208.601 C 155.929 209.841,156.072 211.720,156.153 212.777 C 156.234 213.833,156.381 215.937,156.478 217.453 C 156.576 218.969,156.729 221.111,156.819 222.213 C 157.119 225.883,157.329 228.692,157.581 232.401 C 157.718 234.422,157.902 236.977,157.991 238.079 C 158.380 242.921,158.518 244.752,158.675 247.182 C 158.767 248.605,158.918 250.747,159.011 251.942 C 159.320 255.909,159.479 258.086,159.739 261.879 C 159.880 263.946,160.069 266.576,160.159 267.724 C 160.248 268.873,160.399 270.902,160.495 272.234 C 160.591 273.566,160.713 274.889,160.766 275.174 L 160.863 275.692 162.644 275.808 C 163.624 275.872,165.478 275.994,166.764 276.080 C 168.050 276.166,171.056 276.353,173.445 276.496 C 177.847 276.759,180.576 276.933,185.177 277.241 C 190.922 277.625,192.883 277.735,194.134 277.740 L 195.450 277.745 195.323 277.035 C 195.000 275.230,194.914 274.715,194.675 273.152 C 194.535 272.234,194.334 270.994,194.230 270.397 C 193.957 268.836,193.798 267.862,193.507 265.971 C 193.366 265.052,193.169 263.812,193.069 263.215 C 192.968 262.618,192.780 261.453,192.649 260.626 C 192.317 258.517,192.112 257.278,191.904 256.117 C 191.805 255.566,191.616 254.401,191.484 253.528 C 191.172 251.477,190.959 250.178,190.729 248.935 C 190.627 248.384,190.440 247.219,190.313 246.347 C 190.186 245.474,189.998 244.309,189.896 243.758 C 189.793 243.207,189.605 242.042,189.479 241.169 C 189.352 240.296,189.089 238.681,188.894 237.578 C 188.698 236.476,188.435 234.860,188.308 233.987 C 188.182 233.115,187.995 231.950,187.893 231.399 C 187.689 230.296,187.501 229.165,187.142 226.889 C 187.012 226.063,186.824 224.898,186.725 224.301 C 186.625 223.704,186.435 222.501,186.301 221.628 C 186.056 220.032,185.829 218.650,185.533 216.952 C 185.445 216.447,185.263 215.319,185.129 214.447 C 184.994 213.574,184.812 212.447,184.724 211.942 C 184.486 210.574,184.253 209.161,184.050 207.850 C 183.328 203.199,183.257 202.928,182.750 202.917 C 182.444 202.910,179.554 202.695,176.075 202.421 C 174.904 202.328,172.367 202.139,170.438 201.999 C 168.509 201.860,166.029 201.674,164.927 201.586 C 163.825 201.498,161.946 201.348,160.752 201.253 C 159.557 201.158,157.848 201.033,156.952 200.975 L 155.324 200.870 155.328 201.437 M125.086 229.876 C 125.039 229.923,124.402 230.042,123.670 230.142 C 122.937 230.242,121.850 230.398,121.253 230.488 C 120.656 230.579,119.340 230.762,118.330 230.896 C 117.319 231.030,116.004 231.211,115.407 231.300 C 114.810 231.388,113.457 231.577,112.401 231.720 C 110.293 232.006,108.557 232.252,106.889 232.502 C 106.292 232.591,104.977 232.776,103.967 232.913 C 101.895 233.194,100.459 233.398,98.873 233.638 C 98.276 233.728,96.923 233.919,95.866 234.062 C 93.140 234.431,91.767 234.627,90.522 234.824 C 89.925 234.918,88.572 235.110,87.516 235.250 C 86.459 235.389,85.106 235.577,84.509 235.668 C 83.912 235.758,82.597 235.941,81.587 236.075 C 79.423 236.363,77.823 236.592,76.326 236.828 C 75.729 236.923,74.376 237.110,73.319 237.244 C 72.263 237.379,70.910 237.566,70.313 237.660 C 68.719 237.912,67.122 238.142,65.052 238.417 C 64.042 238.551,62.727 238.733,62.129 238.823 C 61.532 238.912,60.180 239.100,59.123 239.241 C 58.067 239.382,56.714 239.570,56.117 239.660 C 53.542 240.046,52.755 240.159,50.939 240.405 C 48.832 240.691,47.095 240.937,45.428 241.187 C 44.831 241.276,43.516 241.461,42.505 241.598 C 41.495 241.735,40.180 241.917,39.582 242.002 C 38.985 242.088,37.670 242.273,36.660 242.413 C 34.704 242.686,32.947 242.936,31.315 243.175 C 30.764 243.256,29.411 243.444,28.309 243.593 C 26.416 243.848,25.641 243.960,23.048 244.348 C 22.451 244.438,21.098 244.618,20.042 244.749 C 18.985 244.880,17.981 245.041,17.810 245.107 C 17.446 245.248,17.463 245.416,18.219 249.186 C 18.302 249.599,18.483 250.576,18.621 251.357 C 18.857 252.687,19.021 253.545,19.388 255.365 C 19.471 255.779,19.647 256.756,19.779 257.537 C 19.911 258.317,20.104 259.370,20.207 259.875 C 20.310 260.380,20.499 261.395,20.627 262.129 C 20.865 263.499,21.126 264.893,21.393 266.221 C 21.476 266.635,21.656 267.612,21.794 268.392 C 22.030 269.723,22.194 270.581,22.561 272.401 C 22.644 272.814,22.821 273.791,22.953 274.572 C 23.085 275.353,23.277 276.405,23.380 276.910 C 23.483 277.415,23.672 278.430,23.800 279.165 C 24.038 280.535,24.299 281.929,24.566 283.257 C 24.649 283.670,24.830 284.647,24.968 285.428 C 25.203 286.758,25.367 287.616,25.734 289.436 C 25.818 289.850,25.992 290.827,26.123 291.608 C 26.253 292.388,26.471 293.591,26.607 294.280 C 26.743 294.969,26.980 296.246,27.132 297.119 C 27.429 298.816,27.668 300.020,27.894 300.960 C 27.972 301.282,28.087 301.980,28.150 302.512 C 28.250 303.352,32.319 310.385,33.050 310.981 C 33.106 311.027,33.824 312.079,34.645 313.319 C 35.466 314.559,36.187 315.612,36.248 315.658 C 36.309 315.704,36.558 316.042,36.801 316.409 C 37.531 317.513,40.046 320.992,40.242 321.169 C 40.293 321.215,40.706 321.741,41.161 322.338 C 42.876 324.591,46.501 329.101,46.934 329.520 C 46.981 329.566,47.235 329.866,47.499 330.188 C 47.911 330.691,49.515 332.539,50.021 333.095 C 50.113 333.195,50.789 333.953,51.524 334.777 C 55.175 338.876,61.666 345.371,65.716 348.978 C 66.540 349.712,67.374 350.463,67.569 350.647 C 68.209 351.250,70.466 353.198,71.631 354.154 C 71.855 354.338,72.387 354.789,72.812 355.157 C 73.238 355.524,73.797 355.975,74.056 356.159 C 74.314 356.342,74.611 356.571,74.716 356.666 C 75.048 356.968,77.583 358.984,78.068 359.332 C 78.324 359.516,78.619 359.743,78.724 359.836 C 78.829 359.930,79.328 360.303,79.833 360.666 C 80.338 361.028,80.789 361.369,80.835 361.422 C 80.881 361.475,81.595 362.001,82.422 362.591 C 83.248 363.181,84.024 363.760,84.146 363.878 C 84.267 363.996,84.422 364.092,84.490 364.092 C 84.558 364.092,84.759 364.223,84.937 364.384 C 85.115 364.545,86.388 365.428,87.766 366.347 C 89.144 367.265,90.309 368.061,90.355 368.115 C 90.427 368.200,94.677 370.887,95.365 371.283 C 95.503 371.362,96.414 371.919,97.390 372.519 C 98.366 373.120,99.216 373.612,99.280 373.612 C 99.345 373.612,99.711 373.825,100.095 374.085 C 100.479 374.346,101.019 374.673,101.294 374.811 C 101.913 375.123,103.626 376.060,104.301 376.455 C 105.760 377.311,111.667 380.312,114.656 381.715 C 117.913 383.244,120.236 384.301,120.341 384.301 C 120.379 384.301,120.901 384.526,121.503 384.802 C 122.105 385.077,122.637 385.303,122.686 385.303 C 122.734 385.303,123.095 385.449,123.488 385.628 C 123.881 385.807,124.610 386.110,125.107 386.301 C 125.605 386.492,126.182 386.721,126.388 386.810 C 126.960 387.058,127.354 387.208,129.436 387.976 C 130.493 388.366,131.846 388.870,132.443 389.097 C 133.714 389.581,139.212 391.405,141.378 392.061 C 142.205 392.312,143.054 392.585,143.265 392.668 C 144.563 393.178,146.762 392.713,147.722 391.724 C 149.431 389.964,149.514 388.415,148.293 381.044 C 148.202 380.493,148.022 379.290,147.893 378.372 C 147.765 377.453,147.579 376.213,147.481 375.616 C 147.384 375.019,147.189 373.741,147.049 372.777 C 146.759 370.773,146.562 369.485,146.311 367.933 C 146.214 367.336,146.020 366.058,145.880 365.094 C 145.553 362.842,145.362 361.601,145.134 360.251 C 145.033 359.653,144.845 358.413,144.716 357.495 C 144.587 356.576,144.400 355.336,144.301 354.739 C 144.201 354.142,144.014 352.902,143.885 351.983 C 143.669 350.442,143.562 349.747,143.112 346.973 C 143.023 346.422,142.845 345.219,142.716 344.301 C 142.587 343.382,142.399 342.142,142.298 341.545 C 142.070 340.195,141.879 338.953,141.552 336.701 C 141.412 335.737,141.218 334.459,141.122 333.862 C 141.025 333.265,140.842 332.063,140.716 331.190 C 140.455 329.386,140.176 327.559,139.939 326.096 C 139.850 325.545,139.665 324.342,139.528 323.424 C 139.215 321.321,139.018 320.043,138.795 318.664 C 138.698 318.067,138.498 316.752,138.351 315.741 C 138.203 314.731,138.024 313.528,137.954 313.069 C 137.884 312.610,137.705 311.407,137.557 310.397 C 137.295 308.600,137.148 307.666,136.784 305.470 C 136.685 304.873,136.498 303.633,136.369 302.714 C 136.241 301.795,136.061 300.593,135.971 300.042 C 135.615 297.867,135.425 296.632,135.200 295.031 C 135.071 294.113,134.886 292.873,134.788 292.276 C 134.691 291.678,134.496 290.401,134.356 289.436 C 134.029 287.185,133.838 285.943,133.610 284.593 C 133.509 283.996,133.321 282.756,133.192 281.837 C 132.968 280.236,132.778 279.002,132.422 276.827 C 132.331 276.276,132.152 275.073,132.023 274.154 C 131.894 273.236,131.707 271.996,131.608 271.399 C 131.508 270.802,131.321 269.562,131.192 268.643 C 131.063 267.724,130.875 266.484,130.774 265.887 C 130.546 264.537,130.355 263.296,130.028 261.044 C 129.888 260.079,129.694 258.802,129.598 258.205 C 129.346 256.652,129.150 255.364,128.859 253.361 C 128.719 252.397,128.525 251.119,128.428 250.522 C 128.332 249.925,128.141 248.685,128.004 247.766 C 127.691 245.663,127.494 244.385,127.271 243.006 C 127.174 242.409,126.984 241.132,126.848 240.167 C 126.602 238.428,126.407 237.170,126.083 235.240 C 125.991 234.689,125.808 233.449,125.677 232.484 C 125.423 230.619,125.224 229.738,125.086 229.876 M286.789 233.002 C 286.691 233.498,286.528 234.505,286.427 235.240 C 286.326 235.975,286.172 237.027,286.086 237.578 C 285.999 238.129,285.849 239.219,285.751 240.000 C 285.653 240.781,285.500 241.908,285.410 242.505 C 285.321 243.102,285.141 244.380,285.011 245.344 C 284.880 246.309,284.691 247.662,284.589 248.351 C 284.194 251.022,284.102 251.672,283.840 253.612 C 283.691 254.714,283.498 256.086,283.413 256.660 C 283.327 257.234,283.181 258.211,283.089 258.831 C 282.997 259.451,282.806 260.823,282.665 261.879 C 282.524 262.935,282.341 264.251,282.258 264.802 C 282.116 265.750,281.789 268.126,281.420 270.885 C 281.329 271.567,281.279 272.149,281.310 272.180 C 281.360 272.230,282.425 272.147,287.015 271.731 C 287.933 271.647,290.075 271.461,291.775 271.316 C 295.141 271.028,297.413 270.823,300.125 270.562 C 301.090 270.469,303.232 270.282,304.885 270.145 C 306.539 270.008,308.681 269.821,309.645 269.729 C 314.647 269.249,320.168 268.820,320.166 268.912 C 320.161 269.127,319.640 272.999,319.493 273.904 C 319.262 275.328,319.050 276.767,318.753 278.914 C 318.620 279.879,318.431 281.157,318.334 281.754 C 318.236 282.351,318.045 283.666,317.908 284.676 C 317.659 286.519,317.514 287.511,317.173 289.687 C 317.073 290.330,316.874 291.683,316.730 292.693 C 316.382 295.148,316.208 296.321,315.998 297.620 C 315.901 298.217,315.702 299.570,315.556 300.626 C 315.410 301.683,315.227 302.960,315.150 303.466 C 315.073 303.971,314.896 305.211,314.756 306.221 C 314.617 307.232,314.418 308.585,314.314 309.228 C 314.063 310.786,313.905 311.857,313.588 314.154 C 313.442 315.211,313.243 316.564,313.146 317.161 C 312.923 318.543,312.712 319.964,312.404 322.171 C 312.270 323.136,312.080 324.451,311.983 325.094 C 311.886 325.737,311.698 327.052,311.564 328.017 C 311.338 329.653,311.196 330.597,310.799 333.111 C 310.712 333.662,310.531 334.902,310.398 335.866 C 310.265 336.831,310.078 338.127,309.984 338.747 C 309.889 339.367,309.735 340.382,309.640 341.002 C 309.546 341.622,309.359 342.919,309.226 343.883 C 309.093 344.848,308.906 346.125,308.810 346.722 C 308.715 347.319,308.527 348.597,308.394 349.562 C 308.261 350.526,308.074 351.823,307.980 352.443 C 307.885 353.063,307.731 354.077,307.636 354.697 C 307.542 355.317,307.355 356.614,307.222 357.578 C 307.089 358.543,306.898 359.858,306.797 360.501 C 306.361 363.302,306.295 363.740,306.139 364.927 C 305.974 366.186,305.743 367.733,305.467 369.436 C 305.179 371.212,305.154 371.608,305.332 371.608 C 305.497 371.608,309.465 369.162,309.645 368.949 C 309.691 368.895,310.180 368.558,310.731 368.200 C 312.125 367.295,317.341 363.588,317.735 363.223 C 317.913 363.058,318.114 362.923,318.182 362.923 C 318.250 362.923,318.405 362.829,318.527 362.714 C 318.648 362.599,319.386 362.021,320.167 361.430 C 320.948 360.838,321.820 360.162,322.106 359.926 C 322.391 359.691,322.769 359.386,322.946 359.248 C 323.672 358.682,326.603 356.324,326.681 356.245 C 326.727 356.197,327.253 355.747,327.850 355.244 C 328.447 354.742,328.973 354.289,329.019 354.240 C 329.065 354.190,329.365 353.934,329.687 353.671 C 330.888 352.689,334.233 349.646,336.551 347.428 C 337.877 346.158,337.984 345.955,338.378 343.967 C 338.488 343.415,338.641 342.739,338.719 342.463 C 338.797 342.188,338.938 341.511,339.033 340.960 C 339.191 340.035,339.324 339.396,339.724 337.620 C 339.807 337.253,339.988 336.388,340.125 335.699 C 340.263 335.010,340.451 334.109,340.543 333.695 C 340.635 333.282,340.823 332.380,340.960 331.691 C 341.197 330.503,341.387 329.612,341.729 328.100 C 341.811 327.733,341.992 326.868,342.129 326.180 C 342.366 324.991,342.556 324.100,342.898 322.589 C 342.981 322.221,343.161 321.357,343.299 320.668 C 343.436 319.979,343.624 319.077,343.716 318.664 C 343.808 318.251,343.993 317.330,344.126 316.618 C 344.259 315.906,344.489 314.816,344.637 314.196 C 344.898 313.097,345.020 312.533,345.404 310.647 C 345.507 310.142,345.658 309.428,345.739 309.061 C 345.821 308.693,345.962 308.017,346.053 307.557 C 346.143 307.098,346.338 306.159,346.486 305.470 C 346.634 304.781,346.823 303.898,346.906 303.507 C 346.989 303.117,347.124 302.478,347.207 302.088 C 347.290 301.697,347.478 300.777,347.624 300.042 C 347.771 299.307,347.966 298.367,348.058 297.954 C 348.151 297.541,348.338 296.639,348.475 295.950 C 348.712 294.762,348.903 293.870,349.244 292.359 C 349.327 291.992,349.507 291.127,349.645 290.438 C 349.881 289.250,350.072 288.359,350.413 286.848 C 350.496 286.480,350.677 285.616,350.814 284.927 C 350.952 284.238,351.140 283.336,351.232 282.923 C 351.324 282.509,351.511 281.608,351.649 280.919 C 351.886 279.730,352.076 278.839,352.417 277.328 C 352.500 276.960,352.679 276.096,352.814 275.407 C 352.949 274.718,353.215 273.441,353.405 272.568 C 353.595 271.695,353.855 270.455,353.981 269.812 C 354.756 265.863,354.556 266.150,356.660 265.982 C 357.303 265.931,358.580 265.811,359.499 265.716 C 362.123 265.446,364.117 265.254,367.182 264.977 C 369.856 264.736,371.475 264.578,375.031 264.213 C 375.858 264.128,377.812 263.945,379.374 263.806 C 380.935 263.667,382.927 263.481,383.800 263.392 C 388.019 262.964,388.965 262.865,389.869 262.752 L 390.845 262.630 391.394 260.960 C 391.696 260.042,392.075 258.839,392.236 258.288 C 392.397 257.737,392.627 256.977,392.747 256.598 C 393.134 255.386,394.928 248.540,395.237 247.098 C 395.355 246.547,395.541 245.758,395.649 245.344 C 396.017 243.944,396.124 243.449,396.825 239.916 C 396.898 239.549,397.041 238.842,397.143 238.345 C 397.379 237.199,397.706 237.318,393.874 237.147 C 392.053 237.066,389.023 236.922,387.140 236.827 C 380.780 236.506,377.057 236.328,371.357 236.072 C 368.234 235.931,364.213 235.744,362.422 235.655 C 360.630 235.566,356.572 235.379,353.403 235.238 C 347.789 234.989,344.634 234.839,337.787 234.492 C 335.950 234.399,331.891 234.209,328.768 234.071 C 325.645 233.932,321.624 233.745,319.833 233.656 C 318.042 233.567,315.035 233.418,313.152 233.324 C 311.269 233.231,307.173 233.040,304.050 232.901 C 300.927 232.761,296.906 232.574,295.115 232.485 C 293.324 232.397,290.757 232.274,289.412 232.212 L 286.966 232.101 286.789 233.002 M101.493 269.311 C 101.603 270.138,101.776 271.303,101.877 271.900 C 101.978 272.497,102.173 273.737,102.309 274.656 C 102.660 277.012,102.839 278.167,103.048 279.415 C 103.148 280.013,103.342 281.253,103.478 282.171 C 103.829 284.527,104.008 285.683,104.217 286.931 C 104.317 287.528,104.505 288.731,104.635 289.603 C 104.764 290.476,104.949 291.678,105.044 292.276 C 105.140 292.873,105.331 294.113,105.468 295.031 C 105.707 296.636,105.832 297.425,106.221 299.791 C 106.319 300.388,106.508 301.628,106.641 302.547 C 106.875 304.166,107.054 305.303,107.403 307.390 C 107.495 307.942,107.644 308.919,107.735 309.562 C 107.825 310.205,108.044 311.633,108.221 312.735 C 108.398 313.837,108.664 315.566,108.812 316.576 C 108.960 317.587,109.147 318.752,109.228 319.165 C 109.308 319.578,109.494 320.743,109.641 321.754 C 110.084 324.800,110.330 326.354,110.732 328.643 C 110.825 329.171,110.978 330.205,111.072 330.939 C 111.167 331.674,111.319 332.727,111.411 333.278 C 111.503 333.829,111.685 334.994,111.815 335.866 C 111.945 336.739,112.134 337.942,112.234 338.539 C 112.443 339.787,112.622 340.942,112.973 343.299 C 113.109 344.217,113.303 345.457,113.404 346.054 C 113.612 347.293,113.855 348.817,114.009 349.854 C 114.067 350.244,114.056 350.564,113.984 350.564 C 113.859 350.564,109.903 348.085,109.729 347.898 C 109.683 347.848,108.630 347.132,107.390 346.305 C 106.150 345.478,105.098 344.760,105.052 344.708 C 105.006 344.657,103.916 343.874,102.630 342.968 C 101.344 342.062,100.067 341.145,99.791 340.930 C 99.184 340.455,99.250 340.504,97.704 339.375 C 97.015 338.872,96.369 338.384,96.270 338.290 C 96.170 338.197,95.880 337.971,95.626 337.787 C 95.179 337.465,91.793 334.799,91.102 334.226 C 89.859 333.195,87.752 331.427,87.683 331.356 C 87.637 331.310,87.114 330.859,86.522 330.354 C 85.930 329.849,85.247 329.248,85.004 329.019 C 84.762 328.789,84.091 328.188,83.512 327.683 C 82.137 326.481,75.912 320.316,74.223 318.483 C 72.532 316.647,70.834 314.729,70.408 314.172 C 70.225 313.933,69.957 313.624,69.813 313.486 C 69.670 313.349,69.292 312.898,68.975 312.484 C 68.657 312.071,68.321 311.651,68.228 311.552 C 68.135 311.452,67.908 311.164,67.724 310.912 C 67.403 310.471,67.192 310.204,66.630 309.528 C 66.487 309.357,65.698 308.279,64.878 307.134 C 64.057 305.989,63.347 305.015,63.300 304.969 C 63.253 304.923,62.869 304.359,62.447 303.716 C 62.025 303.073,61.442 302.186,61.153 301.745 C 60.863 301.304,60.626 300.872,60.626 300.785 C 60.626 300.698,60.559 300.626,60.477 300.626 C 60.394 300.626,60.185 300.344,60.012 300.000 C 59.839 299.656,59.210 298.547,58.614 297.537 C 57.097 294.965,57.059 294.859,56.605 291.942 C 56.498 291.253,56.351 290.388,56.279 290.021 C 56.206 289.653,56.066 288.864,55.967 288.267 C 55.699 286.655,55.445 285.261,55.282 284.509 C 55.202 284.142,55.059 283.390,54.963 282.839 C 54.547 280.449,54.233 278.726,53.944 277.244 C 53.773 276.372,53.587 275.319,53.530 274.906 C 53.474 274.493,53.355 273.816,53.266 273.403 C 53.006 272.186,52.610 270.089,52.610 269.928 C 52.610 269.758,54.371 269.659,63.633 269.308 C 69.864 269.072,73.427 268.927,81.837 268.565 C 83.812 268.480,88.769 268.291,92.852 268.145 C 96.935 268.000,100.314 267.842,100.361 267.795 C 100.876 267.280,101.299 267.847,101.493 269.311 M286.074 295.526 C 286.032 295.569,284.610 295.723,282.915 295.868 C 281.220 296.013,279.157 296.200,278.330 296.283 C 277.503 296.366,276.038 296.513,275.073 296.611 C 274.109 296.708,272.079 296.899,270.564 297.034 C 269.048 297.170,267.094 297.359,266.221 297.453 C 265.349 297.547,263.395 297.733,261.879 297.865 C 260.363 297.997,258.785 298.143,258.372 298.190 C 257.958 298.237,256.793 298.356,255.783 298.455 C 254.772 298.553,253.287 298.717,252.481 298.820 C 250.824 299.030,250.943 298.886,250.784 300.877 C 250.732 301.520,250.618 302.760,250.530 303.633 C 250.443 304.505,250.291 306.008,250.195 306.973 C 250.098 307.937,249.907 309.967,249.770 311.482 C 249.633 312.998,249.446 314.990,249.353 315.908 C 249.260 316.827,249.072 318.818,248.935 320.334 C 248.798 321.850,248.609 323.841,248.513 324.760 C 248.189 327.887,248.038 329.434,247.773 332.359 C 247.627 333.967,247.438 335.958,247.353 336.785 C 246.988 340.338,246.831 341.955,246.597 344.551 C 246.460 346.067,246.272 348.058,246.180 348.977 C 246.087 349.896,245.899 351.887,245.762 353.403 C 245.521 356.079,245.354 357.798,245.016 361.086 C 244.926 361.958,244.849 362.823,244.845 363.006 C 244.833 363.591,244.608 363.741,243.334 364.022 C 242.026 364.309,241.301 364.478,240.125 364.768 C 239.735 364.865,238.889 365.048,238.246 365.176 C 237.603 365.304,236.363 365.566,235.491 365.759 C 234.618 365.952,233.265 366.216,232.484 366.346 C 231.704 366.476,230.651 366.659,230.146 366.754 C 228.843 366.998,224.114 367.650,221.628 367.929 C 218.304 368.301,214.521 368.446,209.353 368.400 L 203.841 368.351 203.725 367.265 C 203.661 366.668,203.487 364.451,203.337 362.338 C 203.074 358.616,202.927 356.683,202.589 352.484 C 202.500 351.382,202.314 348.864,202.175 346.889 C 201.939 343.527,201.818 341.939,201.420 336.952 C 201.332 335.850,201.143 333.294,201.001 331.273 C 200.858 329.253,200.670 326.697,200.583 325.595 C 200.496 324.493,200.311 321.975,200.173 320.000 C 200.034 318.025,199.842 315.432,199.745 314.238 C 199.328 309.102,199.252 308.087,199.090 305.553 C 198.997 304.084,198.833 302.007,198.727 300.938 L 198.535 298.995 196.178 298.812 C 194.881 298.712,192.580 298.551,191.065 298.456 C 189.549 298.361,187.182 298.207,185.804 298.114 C 184.426 298.021,181.833 297.867,180.042 297.772 C 178.251 297.677,175.733 297.531,174.447 297.448 C 169.618 297.134,162.936 296.800,162.868 296.868 C 162.803 296.933,162.985 298.234,163.360 300.376 C 163.623 301.882,163.812 303.023,164.080 304.718 C 164.225 305.637,164.415 306.802,164.503 307.307 C 164.591 307.812,164.775 308.939,164.912 309.812 C 165.249 311.953,165.459 313.209,165.680 314.405 C 165.782 314.956,165.969 316.121,166.096 316.994 C 166.223 317.866,166.410 319.031,166.512 319.582 C 166.716 320.685,166.904 321.816,167.263 324.092 C 167.393 324.919,167.582 326.084,167.683 326.681 C 167.783 327.278,167.972 328.443,168.102 329.269 C 168.461 331.545,168.649 332.676,168.853 333.779 C 168.955 334.330,169.142 335.495,169.269 336.367 C 169.396 337.240,169.583 338.405,169.685 338.956 C 169.902 340.129,170.112 341.383,170.440 343.466 C 170.571 344.292,170.759 345.457,170.858 346.054 C 170.957 346.651,171.145 347.816,171.276 348.643 C 171.627 350.875,171.820 352.036,172.025 353.152 C 172.126 353.704,172.314 354.831,172.443 355.658 C 172.572 356.484,172.754 357.612,172.846 358.163 C 173.199 360.252,173.384 361.383,173.614 362.839 C 173.744 363.666,173.926 364.793,174.017 365.344 C 174.109 365.896,174.298 367.061,174.438 367.933 C 174.579 368.806,174.773 369.971,174.871 370.522 C 175.081 371.713,175.292 372.989,175.614 375.031 C 175.744 375.858,175.929 377.004,176.026 377.578 C 176.122 378.152,176.279 379.092,176.375 379.666 C 176.471 380.240,176.656 381.386,176.785 382.213 C 176.914 383.040,177.102 384.167,177.202 384.718 C 177.303 385.269,177.493 386.434,177.624 387.307 C 177.755 388.180,177.943 389.344,178.042 389.896 C 178.250 391.057,178.454 392.295,178.787 394.405 C 178.917 395.232,179.109 396.397,179.213 396.994 C 179.317 397.591,179.457 398.435,179.525 398.870 C 179.592 399.305,179.705 399.719,179.775 399.789 C 179.954 399.969,183.300 400.224,191.232 400.665 C 195.187 400.884,205.742 400.886,209.102 400.668 C 218.067 400.086,217.726 400.116,224.802 399.256 C 226.976 398.992,228.310 398.803,230.146 398.498 C 230.743 398.399,231.908 398.213,232.735 398.084 C 233.562 397.955,234.689 397.767,235.240 397.666 C 235.791 397.565,236.881 397.370,237.662 397.233 C 238.443 397.097,239.382 396.920,239.749 396.840 C 240.117 396.761,241.395 396.491,242.589 396.241 C 243.783 395.990,245.023 395.723,245.344 395.646 C 246.047 395.479,247.080 395.238,248.434 394.927 C 250.157 394.532,253.065 393.783,254.029 393.486 C 254.259 393.416,254.747 393.278,255.115 393.180 C 256.606 392.781,257.835 392.428,258.706 392.149 C 259.211 391.986,260.038 391.729,260.543 391.577 C 261.048 391.425,261.837 391.160,262.296 390.989 C 262.756 390.818,263.545 390.555,264.050 390.403 C 265.475 389.976,267.293 389.310,268.585 388.744 C 268.920 388.596,269.300 388.476,269.428 388.476 C 269.557 388.476,269.733 388.411,269.820 388.331 C 269.908 388.251,270.327 388.056,270.753 387.898 C 271.610 387.580,271.637 387.512,272.085 384.551 C 272.183 383.908,272.325 383.044,272.401 382.630 C 272.612 381.482,272.862 380.037,273.152 378.288 C 273.401 376.788,273.572 375.793,273.910 373.862 C 274.041 373.118,274.230 371.994,274.737 368.935 C 274.821 368.430,274.973 367.566,275.075 367.015 C 275.177 366.463,275.369 365.336,275.502 364.509 C 275.634 363.683,275.815 362.630,275.902 362.171 C 275.990 361.712,276.185 360.547,276.337 359.582 C 276.489 358.618,276.674 357.491,276.747 357.077 C 277.043 355.423,277.271 354.083,277.503 352.651 C 277.636 351.825,277.824 350.735,277.920 350.230 C 278.016 349.724,278.163 348.898,278.248 348.392 C 278.332 347.887,278.520 346.760,278.665 345.887 C 278.810 345.015,278.994 343.925,279.075 343.466 C 279.155 343.006,279.336 341.916,279.475 341.044 C 279.615 340.171,279.813 339.006,279.915 338.455 C 280.097 337.473,280.149 337.163,280.653 334.113 C 280.790 333.286,280.978 332.196,281.070 331.691 C 281.163 331.186,281.392 329.833,281.579 328.685 C 281.983 326.202,282.212 324.889,282.435 323.758 C 282.526 323.299,282.669 322.434,282.753 321.837 C 282.837 321.240,282.985 320.319,283.081 319.791 C 283.178 319.263,283.336 318.399,283.432 317.871 C 283.528 317.342,283.712 316.234,283.839 315.407 C 283.967 314.580,284.151 313.472,284.249 312.944 C 284.685 310.581,284.790 309.972,285.008 308.559 C 285.136 307.733,285.324 306.605,285.426 306.054 C 285.528 305.503,285.726 304.338,285.865 303.466 C 286.132 301.799,286.297 300.837,286.588 299.248 C 287.259 295.589,287.260 295.449,286.625 295.449 C 286.365 295.449,286.117 295.484,286.074 295.526 " stroke="none" fill="#042c34" fill-rule="evenodd"></path><path id="path1" d="" stroke="none" fill="#082c34" fill-rule="evenodd"></path><path id="path2" d="" stroke="none" fill="#082c34" fill-rule="evenodd"></path><path id="path3" d="" stroke="none" fill="#082c34" fill-rule="evenodd"></path><path id="path4" d="" stroke="none" fill="#082c34" fill-rule="evenodd"></path></g></svg>